<?xml version="1.0" encoding="UTF-8"?>
<svg version="1.1" viewBox="0 0 1920 1080" width="1280" height="1280" xmlns="http://www.w3.org/2000/svg">
<path transform="translate(281,370)" d="m0 0h19l21 2 24 5 19 8 14 10 8 8 9 14 6 14 4 16 2 23 1 144 4 8 5 3 4 1h9l9-2 4 2 5 46v8l-10 5-12 3-7 1h-28l-15-3-12-5-9-7-7-8-8-16-1-5h-7l-2 6-8 12-12 12-13 8-15 6-15 3-9 1h-20l-16-2-15-4-16-7-12-9-10-10-8-13-6-14-4-18-1-18 2-21 4-13 7-14 11-12 8-7 13-8 16-7 22-7 34-7 25-5 21-7 9-6 5-6 3-9v-9l-3-10-6-8-10-5-15-3h-18l-19 3-15 5-16 8-11 7-11 9-9 9h-7l-8-11-11-17-13-20 2-4 12-12 13-10 15-9 19-9 21-7 20-4zm46 163-10 6-18 6-31 6-18 6-11 7-7 9-4 13v16l3 11 6 9 7 6 11 5 14 2 17-1 12-4 9-5 10-9 7-10 6-16 2-12v-44z" fill="#FEFEFE"/>
<path transform="translate(1067,370)" d="m0 0 28 1 24 4 16 5 15 8 9 7 10 10 8 13 5 12 4 14 2 14 1 154 3 8 5 4 3 3-18 8-15 10-10 8-8 7-7 8-4 6-7-6-7-12-3-8v-3h-6l-9 15-12 13-10 7-17 8-18 4-9 1h-23l-18-3-13-4-16-8-11-8-9-10-7-11-5-11-4-14-2-14v-22l3-17 5-13 7-11 8-9 10-8 14-8 11-5 21-7 27-6 31-6 20-6 14-7 5-6 3-8v-14l-4-10-7-7-11-4-11-2h-19l-14 2-15 4-21 10-12 8-11 9-8 8h-7l-29-44-3-4 2-4 9-9 14-11 17-11 19-9 21-7 21-4zm41 163-10 6-18 6-34 7-14 5-10 6-8 9-4 11-1 12 2 14 5 10 8 8 10 5 7 2 18 1 13-2 12-5 11-8 8-10 6-12 4-16 1-8v-40z" fill="#FEFEFE"/>
<path transform="translate(1449,370)" d="m0 0h14l20 2 19 5 16 8 11 8 10 11 9 15 7 19 4 22 1 10v217h-78l-1-203-3-17-5-12-8-9-12-6-9-2-18-1-16 2-12 4-10 6-10 9-7 10-6 15-4 18-1 10-1 166-5-4-6-8-6-7-8-7-15-11-21-11-16-5-1-1v-247h75v46h6l9-14 12-13 12-9 15-8 21-6z" fill="#FEFEFE"/>
<path transform="translate(591,370)" d="m0 0h18l23 2 25 5 19 8 16 9 15 13 6 8-7 8-14 15-12 13-8 9h-7l-9-9-10-7-15-7-12-3-7-1h-25l-16 4-6 3-5 5-3 4-2 7v9l3 9 6 7 14 7 19 5 48 11 21 7 21 11 10 8 10 10 9 16 5 17 1 6v29l-4 17-5 13-9 14-11 12-15 11-19 9-16 5-17 3-12 1h-29l-26-3-21-5-17-6-21-11-12-9-12-12-7-11 2-4 11-12 15-16 12-13 3-3h6l12 13 10 9 13 8 14 6 11 3 16 2h17l14-3 10-5 5-5 4-7 1-3v-14l-4-10-8-7-13-6-23-6-37-9-21-7-21-11-10-8-11-11-8-13-5-14-2-9-1-9v-16l3-17 6-16 8-12 9-10 9-8 15-9 18-7 22-5z" fill="#FEFEFE"/>
<path transform="translate(471,701)" d="m0 0h8l17 8 19 10 29 13 25 10 36 13 25 8 28 8 29 7 46 9 42 6 32 3 26 2 42 1 41-1 38-3 46-6 42-8 35-8 32-9 25-8 28-10 45-18h11l5 3 3 4v6l-4 7-19 14-20 12-19 11-17 9-24 11-27 11-47 16-52 13-40 7-24 3-24 2-19 1h-36l-26-1-40-4-36-6-34-7-25-7-25-8-31-11-25-11-27-13-22-12-17-10-19-12-23-16-13-10-10-8-11-9-2-4v-5z" fill="#F6A51D"/>
<path transform="translate(786,376)" d="m0 0h78v311h-78z" fill="#FEFEFE"/>
<path transform="translate(1231,667)" d="m0 0h29l18 2 12 4 6 5 2 6v21l-3 19-5 19-7 19-8 16-7 12-11 13-4 5-9 7-2 1h-6l-1-1v-8l11-30 7-22 5-22 1-7v-12l-3-8-8-4-19-2h-23l-32 3-22 3-7-1-2-2v-5l9-8 17-9 17-6 19-5 14-2z" fill="#F6A620"/>
<path transform="translate(814,248)" d="m0 0h20l12 3 11 7 8 8 6 12 2 9v13l-4 13-6 10-9 8-10 5-12 3h-15l-12-3-8-4-10-9-6-9-3-9-1-6v-11l2-11 5-10 9-10 10-6z" fill="#FEFEFE"/>
<path transform="translate(1585,591)" d="m0 0h65l1 1v26l-2 10-4 7-6 4-4 1h-9l-8-4-5-6-5 1-21 11h-2v-15l22-11h2v-11h-24zm35 14v15l2 4 3 2h9l5-5 1-3v-13z" fill="#FEFEFE"/>
<path transform="translate(1611,525)" d="m0 0h13l12 3 8 6 6 8 1 4v15l-5 10-7 6-7 3-5 1h-19l-10-3-10-9-4-10v-11l3-9 6-7 12-6zm-1 14-9 3-5 5-1 3v7l3 5 6 4 10 2h8l10-2 6-4 2-4v-10l-5-6-9-3z" fill="#FEFEFE"/>
<path transform="translate(1585,650)" d="m0 0h65l1 1v43h-11v-30h-16v26h-11v-26h-17v30h-11z" fill="#FEFEFE"/>
<path transform="translate(1603,410)" d="m0 0h2v14l-7 3-2 4v11l3 4h6l4-4 8-20 6-7 9-3 9 2 6 5 4 9v17l-4 8-7 6-5 2h-4v-14l7-3 2-5-1-9-3-3-7 1-4 8-5 13-6 8-8 4h-7l-7-3-5-6-3-8v-13l3-10 6-7 6-3z" fill="#FEFEFE"/>
<path transform="translate(1640,466)" d="m0 0h11v53l-1 1h-10l-1-20-54-1v-13l54-1z" fill="#FEFEFE"/>
</svg>
